<?xml version="1.0" encoding="UTF-8" standalone="no"?>
<!-- Created with Inkscape (http://www.inkscape.org/) -->

<svg
   xmlns:dc="http://purl.org/dc/elements/1.1/"
   xmlns:cc="http://creativecommons.org/ns#"
   xmlns:rdf="http://www.w3.org/1999/02/22-rdf-syntax-ns#"
   xmlns:svg="http://www.w3.org/2000/svg"
   xmlns="http://www.w3.org/2000/svg"
   xmlns:sodipodi="http://sodipodi.sourceforge.net/DTD/sodipodi-0.dtd"
   xmlns:inkscape="http://www.inkscape.org/namespaces/inkscape"
   width="40"
   height="40"
   id="svg2"
   version="1.1"
   inkscape:version="0.48.4 r9939"
   sodipodi:docname="desenho.svg">
  <defs
     id="defs4" />
  <sodipodi:namedview
     id="base"
     pagecolor="#ffffff"
     bordercolor="#666666"
     borderopacity="1.0"
     inkscape:pageopacity="0.0"
     inkscape:pageshadow="2"
     inkscape:zoom="11.2"
     inkscape:cx="40.939776"
     inkscape:cy="15.837755"
     inkscape:document-units="px"
     inkscape:current-layer="layer2"
     showgrid="false"
     inkscape:window-width="1855"
     inkscape:window-height="1056"
     inkscape:window-x="65"
     inkscape:window-y="24"
     inkscape:window-maximized="1"
     width="651.5px" />
  <metadata
     id="metadata7">
    <rdf:RDF>
      <cc:Work
         rdf:about="">
        <dc:format>image/svg+xml</dc:format>
        <dc:type
           rdf:resource="http://purl.org/dc/dcmitype/StillImage" />
        <dc:title />
      </cc:Work>
    </rdf:RDF>
  </metadata>
  <g
     inkscape:label="Camada 2"
     inkscape:groupmode="layer"
     id="layer2"
     transform="translate(0,-1012.3621)"
     sodipodi:insensitive="true">
    <g
       id="g3053"
       transform="matrix(0.10150847,0,0,0.10150847,-20.369745,982.06472)" />
    <path
       sodipodi:type="arc"
       style="fill:#ffffff;stroke:none"
       id="path2992"
       sodipodi:cx="17.5"
       sodipodi:cy="19.196428"
       sodipodi:rx="17.321428"
       sodipodi:ry="17.321428"
       d="m 34.821428,19.196428 a 17.321428,17.321428 0 1 1 -34.6428563,0 17.321428,17.321428 0 1 1 34.6428563,0 z"
       transform="matrix(1.1726804,0,0,1.0515464,-0.56655012,1011.8191)" />
  </g>
  <g
     inkscape:label="Camada 1"
     inkscape:groupmode="layer"
     id="layer1"
     transform="translate(0,-1012.3621)"
     sodipodi:insensitive="true">
    <g
       id="g3052"
       transform="matrix(0.10150847,0,0,0.10150847,-20.369745,982.06472)">
      <path
         style="fill:#d9d7b0"
         d="m 401.8746,669.82452 c -0.76148,-1.98437 2.53665,-25.72186 3.78239,-27.22288 1.18869,-1.43229 21.44523,-8.31087 24.47444,-8.31087 2.44238,0 6.70216,4.88185 15.46485,17.72325 3.24706,4.75844 5.90374,9.65744 5.90374,10.88668 0,3.12605 -3.19759,3.95593 -24.5,6.35863 -21.59116,2.43525 -24.38371,2.49807 -25.12542,0.56519 z m -43.61992,-0.58209 c -3.70994,-0.43202 -9.65833,-1.75488 -13.21865,-2.93968 -7.69707,-2.56142 -17.53601,-8.77493 -17.53601,-11.07438 0,-1.51948 25.87318,-22.18423 29.53497,-23.58939 0.89746,-0.34439 2.81559,0.27419 4.33608,1.39833 8.17385,6.04319 20.4146,10.25346 29.81045,10.25346 7.53255,0 7.47722,-0.18365 4.21407,13.98892 -2.45881,10.67915 -2.02173,10.35778 -16.24388,11.94364 -10.46137,1.16651 -11.03916,1.16704 -20.89703,0.0191 z m 97.90579,-18.10994 c -7.06175,-4.47739 -13.21335,-9.08593 -13.67022,-10.24121 -1.35329,-3.42209 -4.13792,-37.85282 -3.14194,-38.8488 0.49282,-0.49282 5.33519,-2.19546 10.76081,-3.78364 9.31464,-2.72658 10.0049,-2.79658 12.37783,-1.25535 5.22796,3.39559 47.25137,37.74471 47.74206,39.02343 0.75448,1.96615 -2.23971,4.81681 -10.4043,9.90558 -7.91181,4.93122 -26.27933,13.36357 -29.0781,13.34948 -0.96063,-0.005 -7.52439,-3.67211 -14.58614,-8.14949 z m -159.16045,-7.23011 c -16.69259,-6.09935 -27.21514,-12.24272 -36.82586,-21.5 -6.24022,-6.01072 -8.94158,-10.07277 -7.85112,-11.80573 1.33275,-2.118 93.45017,-62.13828 94.6572,-61.6751 1.41483,0.54292 1.89204,5.94803 3.67762,41.65437 l 1.23944,24.78514 -11.44864,11.57939 c -10.40734,10.5262 -12.29638,11.97827 -20.76921,15.96486 -5.12631,2.412 -10.30131,4.36299 -11.5,4.33553 -1.19869,-0.0275 -6.22943,-1.52977 -11.17943,-3.33846 z m 79.75145,-11.43504 c -0.6867,-0.43605 -2.59487,-4.77576 -4.24038,-9.64382 -2.3099,-6.8336 -2.72929,-9.16735 -1.83999,-10.23889 0.95557,-1.1514 5.68237,-1.2744 27.74038,-0.7219 17.55038,0.43959 26.99184,1.05044 27.77496,1.79701 1.70812,1.62837 0.24599,17.42924 -1.72838,18.67812 -1.77634,1.12363 -45.95215,1.24352 -47.70659,0.12948 z m 140.74855,-7.12522 c -4.46964,-1.35235 -14.29466,-6.71101 -24,-13.08984 -12.52731,-8.23357 -28,-19.73702 -28,-20.8171 0,-2.63385 8.19489,-36.7393 9.02791,-37.57232 1.83889,-1.83889 24.46536,10.45865 52.32015,28.43612 14.92024,9.62952 27.25858,18.18775 27.41853,19.01829 0.49939,2.59316 -26.42985,22.86767 -32.26659,24.29289 -1.1,0.2686 -3.125,0.14798 -4.5,-0.26804 z M 393.17191,603.7306 c -12.55546,-1.82853 -23.46796,-3.85562 -24.25,-4.50466 -1.06938,-0.8875 -1.42189,-3.87108 -1.42189,-12.03456 0,-10.16331 0.14328,-10.94617 2.25,-12.29409 3.26093,-2.08639 49.88999,-16.73333 52.18883,-16.39335 1.40432,0.20769 2.28521,1.64707 3.19259,5.21672 1.04526,4.11208 0.95761,7.94171 -0.52833,23.0853 -0.97981,9.98547 -2.10539,18.67951 -2.5013,19.3201 -0.9717,1.57226 -2.62688,1.43521 -28.9299,-2.39546 z M 236.54392,593.20761 c -9.03463,-6.54465 -19.0439,-18.3332 -19.0439,-22.42921 0,-1.77903 1.90392,-3.21848 9.72154,-7.34996 5.34685,-2.82572 10.44493,-5.13767 11.32906,-5.13767 2.24486,0 25.9494,17.03199 25.9494,18.64494 0,1.19489 -14.78378,13.59797 -21.08786,17.69198 -2.51083,1.6306 -2.71525,1.58833 -6.86824,-1.42008 z m 205.17067,-4.16684 c -1.56849,-1.90293 -5.81987,-41.5447 -4.58761,-42.77696 1.19466,-1.19466 26.82658,2.0805 28.37126,3.62518 0.8315,0.8315 -4.75395,34.69575 -6.45756,39.15178 -0.32663,0.85435 -2.98122,1.25 -8.38683,1.25 -5.11098,0 -8.27344,-0.44221 -8.93926,-1.25 z m 82.28543,-21.34856 c -14.3,-9.1108 -26.43071,-16.98148 -26.95714,-17.49041 -1.60326,-1.54995 1.22524,-3.37722 16.19564,-10.46272 l 14.23851,-6.7391 23.76149,9.26225 c 13.06883,5.09423 24.5941,9.69962 25.61172,10.23421 1.56431,0.82177 1.74312,1.68621 1.15713,5.59386 -2.42047,16.14089 -11.92388,26.24653 -24.62337,26.18374 -2.6476,-0.0131 -9.04178,-3.62143 -29.38398,-16.58183 z m -262.5,-4.02152 c -17.1916,-10.61919 -18.23842,-11.40762 -17.21384,-12.96488 0.39261,-0.59672 8.56512,-5.28191 18.16112,-10.41153 l 17.44729,-9.32658 20.05271,3.75771 c 25.38736,4.75738 24.55272,4.55232 24.55272,6.03219 0,0.6875 -2.56974,2.95622 -5.71054,5.04159 -3.1408,2.08538 -13.0575,9.12409 -22.03713,15.64158 -8.97962,6.5175 -17.09738,11.8397 -18.03946,11.82711 -0.94208,-0.0126 -8.68787,-4.33132 -17.21287,-9.59719 z m 106.01235,-3.62992 c 0.0213,-9.06935 2.88039,-38.04274 3.84966,-39.01201 0.56802,-0.56802 4.97937,-0.26085 11.41073,0.79456 l 10.48472,1.72058 14.89539,-2.62656 c 8.19246,-1.44462 16.12203,-2.62657 17.62127,-2.62657 l 2.72588,0 0,16.02144 c 0,15.66689 -0.0498,16.04244 -2.25,16.97072 -2.70081,1.13948 -55.40797,14.00784 -57.37433,14.00784 -0.99444,0 -1.37225,-1.45489 -1.36332,-5.25 z m -157.12862,-9.27995 c -4.12742,-9.33072 -5.21844,-17.75449 -5.30331,-40.94715 l -0.0804,-21.9771 20,-4.7222 c 15.84057,-3.74012 20.25881,-4.46651 21.24446,-3.49273 1.46262,1.44501 9.53789,46.2452 8.75636,48.57874 -0.67937,2.0285 -38.45476,27.09039 -40.83292,27.09039 -1.15024,0 -2.48957,-1.60329 -3.78417,-4.52995 z m 242.40826,-10.31761 c -8.36441,-2.00884 -15.7347,-4.18272 -16.37841,-4.83085 -0.8941,-0.90022 -0.63781,-5.50358 1.08568,-19.5 1.24084,-10.07687 2.66445,-19.10909 3.16359,-20.07159 0.81529,-1.57216 2.80938,-1.74971 19.62233,-1.74718 16.29883,0.002 31.8045,1.00816 38.85115,2.51991 1.43449,0.30775 5.45897,5.53166 12.25,15.9009 5.56252,8.49342 10.11367,15.9072 10.11367,16.47507 0,1.71812 -44.63444,15.14489 -49.87671,15.00374 -1.99281,-0.0537 -10.4669,-1.74116 -18.8313,-3.75 z m 101.20801,-7.52681 -28,-8.23047 -8.93597,-13.21161 c -6.54336,-9.6742 -8.63901,-13.50857 -7.82686,-14.32072 0.7883,-0.7883 10.0257,-0.95058 31.93597,-0.56104 38.49295,0.68435 47.48077,2.23911 51.71089,8.94524 1.45785,2.31119 -0.52888,15.02197 -4.10343,26.25297 -2.25692,7.09112 -3.27977,9.03776 -4.82254,9.17805 -1.07693,0.0979 -14.55806,-3.52566 -29.95806,-8.05242 z m -292.19877,-5.4183 c -1.26288,-0.8028 -7.38229,-34.83252 -6.62067,-36.81725 0.54098,-1.40978 3.78658,-1.92934 22.07258,-3.53346 9.13742,-0.80156 14.5988,-0.90468 15.21619,-0.28729 1.42284,1.42284 -3.37985,39.44212 -5.12189,40.54612 -1.66999,1.05834 -23.9001,1.13829 -25.54621,0.0919 z m 32.91178,-0.45733 c -0.72532,-0.87864 0.0553,-6.74617 2.62756,-19.75 l 3.65943,-18.5 26.93332,-0.26668 c 15.83077,-0.15675 27.32013,0.12013 27.87167,0.67167 1.12087,1.12087 -3.08297,35.95849 -4.56674,37.84501 -0.74355,0.94538 -7.62517,1.25 -28.23825,1.25 -20.58709,0 -27.50756,-0.30582 -28.28699,-1.25 z M 384.50002,515.109 c -5.225,-1.64546 -10.01512,-3.5152 -10.64472,-4.15499 -0.86162,-0.87556 -0.1197,-4.13093 3,-13.16324 l 4.14472,-12 6.5,-0.63024 c 3.575,-0.34663 13.8125,-0.95704 22.75,-1.35645 l 16.25,-0.72622 0,12.48401 c 0,8.79335 -0.36954,12.77624 -1.25,13.4725 -2.0455,1.61757 -26.04367,9.26436 -28.75147,9.16139 -1.37419,-0.0523 -6.77353,-1.4413 -11.99853,-3.08676 z m 182.5,-27.71282 c -11,-0.89226 -20.5625,-1.98255 -21.25,-2.42287 -1.80312,-1.15483 -1.78768,-37.99141 0.0166,-39.4888 2.69796,-2.23911 17.5726,-6.49466 24.30139,-6.95248 10.85181,-0.73836 16.25626,3.1617 19.75878,14.25874 3.44857,10.9261 5.72046,32.53329 3.67932,34.99272 -1.43386,1.72768 -0.2118,1.74554 -26.50605,-0.38731 z m -42.47012,-3.25335 c -3.55857,-0.5205 -6.7768,-1.44256 -7.15161,-2.04903 -0.78299,-1.2669 0.35869,-5.36903 6.33779,-22.77208 l 4.28394,-12.46905 3.94036,-0.80488 c 6.25295,-1.27725 6.43918,-0.7203 6.76877,20.24298 l 0.29087,18.5 -4,0.14921 c -2.2,0.0821 -6.91156,-0.27665 -10.47012,-0.79715 z m -70.52988,-3.91946 c -9.9,-1.53922 -18.1125,-2.82874 -18.25,-2.86559 -1.68632,-0.45198 6.50429,-33.03549 8.49639,-33.79993 1.95881,-0.75167 38.46765,3.54696 39.58105,4.66036 0.96308,0.96308 -5.93702,31.75786 -7.57853,33.82256 -1.21175,1.52414 -0.25308,1.60245 -22.24891,-1.8174 z m 28.65838,1.75824 c -0.80027,-0.96427 -0.0375,-5.75078 2.89531,-18.16892 2.18999,-9.27287 4.47892,-17.45875 5.0865,-18.19084 1.53122,-1.84501 30.13375,-1.91831 31.63917,-0.0811 1.2563,1.53319 -8.80578,35.51887 -10.91083,36.85241 -2.31751,1.46814 -27.44913,1.10787 -28.71015,-0.41157 z m -129.86739,-4.5757 c -8.36495,-0.88833 -15.71169,-2.12188 -16.3261,-2.74124 -0.82331,-0.82995 -0.39981,-4.77476 1.61033,-15 1.50008,-7.63064 3.16443,-14.4364 3.69855,-15.1239 0.71061,-0.91468 5.62662,-1.25 18.32562,-1.25 20.06016,0 18.03051,-1.08178 22.98353,12.25 1.5836,4.2625 3.2038,7.75 3.60046,7.75 0.39665,0 0.85516,-2.8125 1.0189,-6.25 l 0.29772,-6.25 4.5,-2.22959 c 2.475,-1.22627 11.23404,-5.14615 19.46454,-8.71083 17.42806,-7.54822 16.25862,-7.77377 21.83763,4.21176 l 3.59752,7.72866 -3.19984,13 -3.19985,13 -21.5,0 -21.5,0 -0.30226,-5.25 c -0.16624,-2.8875 -0.54343,-5.25 -0.83819,-5.25 -0.29476,0 -3.52749,2.7 -7.18386,6 -4.69623,4.23852 -7.38595,5.96041 -9.16181,5.86514 -1.38263,-0.0742 -9.35793,-0.86168 -17.72289,-1.75 z m -53.11647,-3.40485 c -1.61234,-1.94276 -8.17452,-17.6444 -8.17452,-19.55958 0,-2.29559 8.74934,-15.16184 10.27106,-15.10401 0.67592,0.0257 6.62894,1.04902 13.22894,2.27408 l 12,2.22739 -0.15459,14.85794 c -0.1168,11.22589 -0.48348,15.06636 -1.5,15.71059 -2.26294,1.43417 -24.43466,1.08315 -25.67089,-0.40641 z m -34.85706,-1.32537 c -0.88219,-2.29896 0.51043,-31.61281 1.55129,-32.65367 0.47577,-0.47577 5.31244,-0.94744 10.74814,-1.04815 l 9.88311,-0.1831 0.50707,9.5 c 0.4547,8.51868 0.89716,10.25318 4.28343,16.79141 2.07699,4.01027 3.50975,7.72277 3.18391,8.25 -0.33374,0.54001 -6.91204,0.95859 -15.06481,0.95859 -12.40016,0 -14.56111,-0.23125 -15.09213,-1.61508 z m -51.56502,-2.10094 c -1.96925,-0.29841 -2.93602,-1.16723 -3.41285,-3.06707 -0.97067,-3.86746 1.27474,-23.21256 3.2744,-28.21019 l 1.71552,-4.2875 16.08524,0.65588 c 23.72317,0.96732 29.58525,1.62055 29.58525,3.29678 0,0.7774 -3.6386,8.36925 -8.08578,16.87079 l -8.08578,15.45733 -14.16422,-0.14983 c -7.79032,-0.0824 -15.40062,-0.33719 -16.91178,-0.56619 z m 172.25213,-26.47759 c -1.67211,-3.84143 -9.09744,-36.122 -8.60446,-37.40669 0.56855,-1.48161 45.20969,-28.3997 47.09825,-28.3997 1.13055,0 1.26829,3.83353 0.7995,22.25 -0.31151,12.2375 -0.91497,22.925 -1.34103,23.75 -0.56703,1.09797 -26.68157,16.76891 -36.20258,21.72461 -0.41016,0.21349 -1.19751,-0.64971 -1.74968,-1.91822 z m 141.05445,-17.18 c -5.71849,-12.24632 -6.24707,-13.7698 -5.28619,-15.2359 1.70717,-2.60478 33.59955,-22.47958 35.61143,-22.19245 4.53126,0.6467 21.26131,27.65152 23.20184,37.45129 0.77463,3.91187 2.05072,3.50193 -22.79001,7.32119 -27.95806,4.29855 -24.96671,5.01329 -30.73707,-7.34413 z m -80.05902,6.44345 -7.5,-0.56984 -0.6511,-5.5 c -0.35811,-3.025 -0.69561,-8.71436 -0.75,-12.64301 -0.0783,-5.65325 0.231,-7.26961 1.48289,-7.75 0.86998,-0.33385 6.60748,-0.60813 12.75,-0.60953 l 11.16821,-0.003 7.5,-4.99493 c 4.125,-2.74721 8.2375,-4.99607 9.13888,-4.99746 1.86048,-0.003 36.19121,30.48147 36.67756,32.56825 0.42999,1.84495 -1.44049,2.16077 -23.16207,3.91085 -18.7239,1.50855 -32.29001,1.67959 -46.65437,0.5882 z m -118.87816,-7.0697 c -14.33292,-1.64438 -24.6701,-3.26921 -25.08664,-3.94318 -1.37947,-2.23204 -4.13191,-28.36025 -3.09663,-29.39553 0.65725,-0.65724 11.06234,1.68321 30.77718,6.92282 l 29.78425,7.91575 0,10.5 0,10.5 -4,0.1485 c -2.2,0.0817 -14.97017,-1.11009 -28.37816,-2.64836 z m -71.12184,-3.06279 c -12.925,-0.98632 -24.85,-1.8326 -26.5,-1.88064 -5.57028,-0.16216 -6.18006,-1.24762 -4.07301,-7.25034 7.21203,-20.5462 23.36778,-46.80637 28.79617,-46.80637 1.10879,0 8.87198,4.26077 17.25153,9.46837 l 15.23556,9.46838 4.23814,16.21893 c 2.33098,8.92041 4.48005,17.70964 4.77572,19.53162 l 0.53757,3.3127 -8.38084,-0.13467 c -4.60946,-0.0741 -18.95584,-0.94166 -31.88084,-1.92798 z m 247.23075,-25.18735 c -6.12215,-4.5375 -11.36418,-8.81177 -11.64896,-9.49839 -0.28478,-0.68661 1.4807,-5.55423 3.92329,-10.81693 l 4.44106,-9.56856 -5.72307,-2.42966 c -8.01632,-3.40325 -10.50882,-4.77333 -10.91378,-5.99911 -0.48367,-1.46407 7.37026,-13.43735 8.81429,-13.43735 1.66799,0 30.85048,16.21359 40.52693,22.51649 9.31412,6.06688 16.34949,12.1064 16.34949,14.03522 0,1.62236 -30.71302,23.44829 -32.99597,23.44829 -0.90316,0 -6.65114,-3.7125 -12.77328,-8.25 z m -70.19134,-0.20252 c -1.46222,-1.76187 0.61407,-28.49442 2.3545,-30.31451 1.59414,-1.66711 54.9088,2.66741 56.85746,4.62255 1.76665,1.77253 -22.37036,24.82111 -26.75137,25.54504 -1.65,0.27266 -9.37909,0.71794 -17.17575,0.98951 -11.08166,0.38601 -14.41783,0.2021 -15.28484,-0.84259 z m -106.96334,-9.56492 c -5.18316,-4.36005 -9.7718,-8.49023 -10.19697,-9.17818 -0.80244,-1.29837 9.31608,-21.89155 11.74831,-23.91012 1.71011,-1.41926 34.04042,3.91643 36.07823,5.95424 0.82662,0.82662 1.1858,2.47335 0.87797,4.02521 -0.28653,1.44446 -1.04659,8.25129 -1.68901,15.12629 -0.64243,6.875 -1.57236,13.2875 -2.06651,14.25 -0.78351,1.5261 -2.46123,1.74424 -13.11327,1.70496 l -12.21482,-0.045 -9.42393,-7.92736 z m 49.36035,4.91457 c -0.37489,-0.60659 -0.9145,-8.85924 -1.19915,-18.33924 -0.45264,-15.07503 -0.32,-17.31217 1.05777,-17.84087 0.86642,-0.33247 12.20874,-1.62151 25.20518,-2.86453 20.54229,-1.96473 23.75003,-2.07008 24.54951,-0.80626 1.25997,1.99176 1.19119,13.63508 -0.0947,16.03786 -0.93393,1.745 -45.46774,24.91591 -47.88768,24.91591 -0.52212,0 -1.25604,-0.49629 -1.63093,-1.10287 z m -94.18642,-22.89853 c -9.83861,-4.7759 -16.25,-8.457 -16.25,-9.32992 0,-1.4849 9.86399,-9.89426 18.24059,-15.55067 6.60188,-4.458 20.64268,-11.06253 25.03279,-11.77495 l 3.6626,-0.59435 3.5987,7.87564 c 5.64308,12.34972 5.84448,11.24988 -4.55509,24.87565 -6.26799,8.21247 -9.84063,12.06104 -11.31916,12.19338 -1.18824,0.10635 -9.47293,-3.3563 -18.41043,-7.69478 z m 174.75,-7.4592 c -5.225,-0.68331 -10.4,-1.53089 -11.5,-1.8835 -3.82722,-1.22685 -16.02947,-15.96685 -21.90406,-26.45954 -5.6384,-10.07082 -6.34965,-13.19636 -3.00297,-13.19636 8.7594,0 46.40864,10.51977 54.90703,15.34186 l 4,2.26964 -0.24595,8.59956 c -0.13528,4.72976 -0.60361,10.32967 -1.04074,12.44425 l -0.79478,3.84469 -5.45926,0.1409 c -3.0026,0.0775 -9.73427,-0.41818 -14.95927,-1.1015 z m -127.34223,-12.2894 c -1.0447,-1.70235 -4.87268,-23.24757 -4.36534,-24.56969 0.35559,-0.92664 4.7339,-2.26088 12.37888,-3.77234 9.70282,-1.91831 15.06368,-2.34267 29.82869,-2.3612 12.10754,-0.0152 19.45005,0.4111 22.42952,1.30221 4.85215,1.45119 28.95057,17.92557 29.02452,19.842 0.0253,0.65504 -0.34296,1.43135 -0.8183,1.72513 -0.80985,0.50051 -81.86919,8.58389 -86.07845,8.58389 -1.06659,0 -2.14637,-0.3375 -2.39952,-0.75 z"
         id="path3066"
         inkscape:connector-curvature="0" />
      <path
         style="fill:#90cdd0"
         d="m 403.50002,666.87992 c 0,-2.40106 1.09174,-11.051 2.55798,-20.26706 0.48828,-3.06903 0.88999,-3.30535 11.72381,-6.89696 6.17002,-2.04548 11.71355,-3.90029 12.31897,-4.12181 0.60542,-0.22152 4.23432,3.78211 8.06423,8.89696 11.43497,15.27144 13.24178,19.07961 9.58501,20.20216 -2.89683,0.88927 -24.14231,3.47933 -34.52844,4.2094 l -9.72156,0.68336 0,-2.70605 z m -51.5,-0.01 c -3.3,-0.76635 -7.35,-1.9085 -9,-2.53812 -4.5198,-1.7247 -13.36643,-7.25093 -13.92096,-8.69602 -0.29239,-0.76195 5.37109,-5.70686 14.10773,-12.31779 l 14.59623,-11.0448 3.1085,2.07935 c 1.70967,1.14365 6.4437,3.70701 10.52005,5.69636 6.26605,3.05797 8.71285,3.6853 15.83114,4.05892 4.94186,0.25938 8.57956,0.90467 8.80688,1.56225 0.21301,0.61619 -0.61511,5.36406 -1.84028,10.55084 -2.09014,8.84865 -2.41212,9.48539 -5.21844,10.32019 -5.46388,1.62535 -30.45134,1.84746 -36.99085,0.32882 z m 105.93034,-16.1532 c -6.56169,-4.1767 -12.47448,-8.11876 -13.13953,-8.76015 -1.13495,-1.0942 -4.29081,-27.3157 -4.29081,-35.65123 l 0,-3.70523 9.12518,-2.73857 c 5.01885,-1.50621 9.85635,-2.54577 10.75,-2.31013 1.64552,0.43389 47.48933,36.90209 48.55322,38.62351 1.32077,2.13705 -13.38475,11.67896 -26.94409,17.4831 -12.38958,5.30341 -10.79576,5.49828 -24.05397,-2.94094 z m -158.93034,-7.37487 c -11.66104,-4.07896 -18.51387,-7.31626 -26.70748,-12.61668 -8.12077,-5.2533 -18.79252,-15.71815 -18.79252,-18.42818 0,-1.22294 13.86254,-10.89361 45.07951,-31.44801 24.79373,-16.3251 45.71494,-29.92584 46.49157,-30.22386 0.77663,-0.29802 1.61689,0.0673 1.86724,0.8119 0.25035,0.74456 1.21079,15.2399 2.1343,32.21187 l 1.67913,30.85812 -11.37587,11.511 c -10.15955,10.28022 -12.35055,11.97941 -20.49158,15.89188 -5.01364,2.40948 -9.73864,4.347 -10.5,4.3056 -0.76137,-0.0414 -4.9843,-1.33454 -9.3843,-2.87364 z M 377.2747,632.6062 c -2.51389,-0.65942 -8.1343,-18.30893 -6.39748,-20.08972 0.97927,-1.00408 6.91333,-1.12907 27.98357,-0.58942 23.00168,0.58911 26.84899,0.90712 27.51489,2.27429 1.30961,2.68882 -0.17717,17.03686 -1.87673,18.11124 -1.47035,0.92949 -43.79688,1.19264 -47.22425,0.29361 z m 135.62939,-10.27963 c -8.41331,-3.7444 -40.43019,-25.07091 -44.58708,-29.69954 -1.54,-1.71477 -1.39127,-2.98185 2.24801,-19.15111 2.14342,-9.52317 4.15245,-17.72797 4.4645,-18.23289 1.0883,-1.76089 26.76131,12.23302 50.77701,27.67768 13.30642,8.55744 25.02042,16.35591 26.03112,17.32993 1.7723,1.70799 1.48789,2.04788 -8,9.56053 -18.93052,14.98945 -22.30603,16.35515 -30.93356,12.5154 z m -118.90407,-18.88703 -25,-3.64877 0,-12.48296 0,-12.48295 26.32091,-8.41042 c 23.66751,-7.56258 26.47571,-8.25562 27.8565,-6.87483 2.35701,2.35701 2.67544,12.50834 0.92929,29.6256 -1.40538,13.77674 -2.53872,18.33734 -4.47914,18.02433 -0.34516,-0.0557 -11.87756,-1.74318 -25.62756,-3.75 z M 232.74556,588.43319 c -3.7432,-3.22168 -8.54562,-8.38371 -10.67204,-11.47118 -4.74951,-6.89607 -4.61771,-7.12228 7.7769,-13.34722 l 8.95905,-4.49951 6.09527,4.28451 c 15.62251,10.98143 17.54377,12.46678 17.56868,13.58264 0.0315,1.41301 -19.87891,17.30834 -21.68038,17.30834 -0.68292,0 -4.30428,-2.63591 -8.04748,-5.85758 z m 210.049,-0.39242 c -1.09483,-1.44005 -5.58679,-39.79108 -4.75773,-40.62015 0.70969,-0.70968 25.27296,2.34659 26.18435,3.25798 0.99914,0.99913 -5.73654,36.97292 -7.08639,37.84686 -1.94305,1.25799 -13.30733,0.87389 -14.34023,-0.48469 z m 82.20546,-21.28799 c -14.3,-9.09172 -26.15256,-16.97269 -26.33902,-17.51327 -0.42332,-1.22725 26.2224,-13.95374 29.17611,-13.93505 2.77207,0.0175 47.84987,17.67078 48.72073,19.07987 1.94907,3.15365 -3.32336,17.50819 -8.33177,22.68384 -3.04898,3.1508 -10.54746,6.22726 -15.15755,6.21881 -1.13768,-0.002 -13.7685,-7.44247 -28.0685,-16.5342 z m -261.99537,-4.2105 c -8.7129,-5.3694 -15.99882,-10.23409 -16.19094,-10.81044 -0.19212,-0.57635 7.16151,-5.03962 16.34139,-9.91839 l 16.69069,-8.87049 7.07712,1.20744 c 18.2799,3.11874 34.60678,6.54152 34.35508,7.20221 -0.21272,0.55838 -28.71159,21.38808 -40.62847,29.69518 -1.56639,1.09191 -3.88398,-0.0253 -17.64487,-8.50551 z m 104.50765,-1.91361 c 0.0217,-8.54488 2.99055,-38.74073 3.89824,-39.64842 0.50334,-0.50334 5.40805,-0.13403 11.50263,0.86611 l 10.62513,1.74363 15.84363,-2.80926 c 8.71399,-1.54509 16.59185,-2.52214 17.50636,-2.17121 1.46971,0.56398 1.63075,2.46892 1.38723,16.40965 l -0.2755,15.7716 -26.5,6.70303 c -14.575,3.68666 -28.1875,6.98872 -30.25,7.3379 l -3.75,0.63487 0.0123,-4.8379 z m -155.9896,-10.5879 c -2.71019,-6.17652 -4.75335,-17.38333 -5.96164,-32.69989 -1.4219,-18.02421 -1.36378,-26.56876 0.18896,-27.78153 2.18006,-1.70274 38.70897,-9.71178 39.68988,-8.70209 1.08867,1.12059 8.95924,45.44526 8.35726,47.06554 -0.50419,1.35708 -37.82806,26.36797 -39.34905,26.36797 -0.5833,0 -1.89974,-1.9125 -2.92541,-4.25 z m 243.03032,-10.89121 c -9.04584,-2.1557 -16.66524,-4.1377 -16.93199,-4.40445 -0.46053,-0.46053 0.52554,-10.138 3.03866,-29.82202 l 1.13217,-8.86769 25.10408,0.56421 c 13.80724,0.31031 26.90408,0.92577 29.10408,1.36768 3.7926,0.76182 4.51446,1.56799 13.92207,15.54808 5.45714,8.10952 9.66702,14.99964 9.3553,15.31136 -0.69851,0.69852 -46.37722,14.48725 -47.48224,14.33316 -0.43732,-0.061 -8.19628,-1.87463 -17.24213,-4.03033 z m 100.82009,-7.1862 c -15.19481,-4.49493 -28.3018,-8.74413 -29.12666,-9.44267 -0.82486,-0.69854 -4.77808,-6.22821 -8.78493,-12.28815 -5.26823,-7.96763 -6.98271,-11.32056 -6.19264,-12.11063 1.37502,-1.37502 53.46615,-0.4837 63.73114,1.09049 9.01187,1.38202 15.24325,3.73011 16.59326,6.25263 1.3723,2.56417 0.4742,9.65693 -2.76364,21.82574 -2.61815,9.83982 -3.89079,13.05515 -5.1148,12.92259 -0.39315,-0.0426 -13.14693,-3.75508 -28.34173,-8.25 z m -292.56545,-5.4613 c -1.14609,-0.72866 -6.30764,-28.22138 -6.30764,-33.59732 0,-1.43768 0.5625,-2.62292 1.25,-2.63385 0.6875,-0.0109 7.325,-0.67699 14.75,-1.48012 19.45932,-2.10484 19.00196,-2.14699 18.99013,1.75 -0.0235,7.73543 -4.00026,35.13937 -5.21079,35.90754 -1.61676,1.02595 -21.86961,1.07233 -23.4717,0.0537 z m 32.70009,-1.46129 c 0.01,-1.56225 5.8208,-31.61699 6.57395,-34 0.508,-1.60732 2.66254,-1.75 26.42669,-1.75 14.23048,0 26.06872,0.3375 26.3072,0.75 0.39852,0.68932 -2.47109,25.45626 -3.82353,33 l -0.58267,3.25 -27.45468,0 c -21.30121,0 -27.45296,-0.28017 -27.44696,-1.25 z m 88.99227,-10.08534 c -12.66311,-3.87595 -12.53797,-3.55179 -7.20512,-18.66466 l 3.70512,-10.5 8,-0.65343 c 4.4,-0.35938 14.525,-0.80938 22.5,-1 l 14.5,-0.34657 0,12.5 0,12.5 -13.5,4.68081 c -7.425,2.57444 -14.4,4.68461 -15.5,4.68926 -1.1,0.005 -6.725,-1.43778 -12.5,-3.20541 z m 184.3999,-28.64204 c -11.60506,-0.94562 -21.61756,-2.03911 -22.25,-2.42998 -0.79731,-0.49276 -1.1499,-6.20484 -1.1499,-18.6286 0,-20.70612 -0.75432,-19.18863 11.37438,-22.88229 9.30815,-2.83469 16.26546,-3.52785 21.43166,-2.13523 7.97243,2.14907 12.01077,11.99342 14.14049,34.47059 0.74927,7.90784 0.72752,11.27071 -0.0792,12.24274 -0.61172,0.73708 -1.39462,1.28208 -1.73977,1.21111 -0.34516,-0.071 -10.12261,-0.90272 -21.72766,-1.84834 z m -41.8999,-2.15612 c -8.6277,-1.08524 -9.5,-1.39718 -9.5,-3.39724 0,-2.38714 8.97973,-29.62622 10.62152,-32.21926 1.08546,-1.71439 2.36676,-2.25 5.38248,-2.25 4.86337,0 4.68908,-0.66003 5.42754,20.55481 0.57565,16.53769 0.19303,18.61042 -3.38154,18.31869 -0.8525,-0.0696 -4.7,-0.52272 -8.55,-1.007 z m -72,-3.92052 c -9.9,-1.55226 -18.3375,-2.85012 -18.75,-2.88414 -1.37916,-0.11372 -0.77546,-4.00626 2.89592,-18.67228 2.14007,-8.54892 4.20909,-14.78043 5.00945,-15.08756 1.8694,-0.71735 38.62804,3.6378 39.72854,4.70703 0.85207,0.82785 -5.68333,29.55562 -7.56213,33.24097 -0.49068,0.9625 -1.43881,1.69786 -2.10696,1.63413 -0.66815,-0.0637 -9.31482,-1.38589 -19.21482,-2.93815 z m 28.29184,1.8651 c -1.59313,-1.2228 -1.43885,-2.45223 2.29124,-18.2583 2.19966,-9.32097 4.49537,-17.54485 5.10158,-18.27528 0.84678,-1.02031 4.60266,-1.26426 16.20876,-1.05277 14.23749,0.25943 15.12303,0.39033 15.39245,2.27527 0.29316,2.05103 -8.99567,34.04082 -10.25017,35.30053 -0.38312,0.38471 -6.62288,0.83946 -13.86614,1.01055 -9.72684,0.22976 -13.6161,-0.0317 -14.87772,-1 z m -130.01759,-4.71558 c -8.64916,-0.90585 -16.2209,-2.14215 -16.8261,-2.74735 -0.80047,-0.80047 -0.35704,-4.88144 1.62707,-14.97425 1.50008,-7.63064 3.16443,-14.4364 3.69855,-15.1239 0.71022,-0.91418 5.60674,-1.25 18.22623,-1.25 12.61742,0 17.51716,0.33596 18.23011,1.25 0.53625,0.6875 2.72885,5.74373 4.87244,11.23606 l 3.89745,9.98605 0.25923,-5.48605 c 0.46787,-9.90149 -0.51782,-9.0032 19.61833,-17.87873 10.11633,-4.45903 19.11486,-8.10733 19.99672,-8.10733 1.80091,0 9.62572,14.63903 9.62572,18.00824 0,3.02734 -5.13346,23.28592 -6.26949,24.74176 -1.36106,1.74423 -39.79001,1.7905 -41.53051,0.05 -0.66,-0.66 -1.2,-3.45369 -1.2,-6.20821 l 0,-5.00821 -4.25,4.0309 c -6.84651,6.49355 -10.78779,9.39442 -12.57673,9.25676 -0.9203,-0.0708 -8.74986,-0.8699 -17.39902,-1.77574 z m -53.07243,-3.3455 c -1.63709,-1.21775 -8.70182,-17.45203 -8.70182,-19.9962 0,-1.55075 8.74581,-14.7538 9.77304,-14.7538 0.91902,0 20.89132,3.75368 24.12966,4.53503 l 2.4027,0.57972 -0.66528,14.64139 c -0.45019,9.90774 -1.06535,14.89547 -1.9027,15.42731 -2.09823,1.33265 -23.15135,0.96816 -25.0356,-0.43345 z m -35.20725,-0.75878 c -1.05451,-1.70623 0.69114,-31.90467 1.89936,-32.8576 0.60834,-0.4798 5.01636,-1.17741 9.79559,-1.55025 10.4414,-0.81456 10.81048,-0.46031 10.81048,10.37585 0,6.11318 0.48251,8.04885 3.5,14.04078 5.7017,11.32207 6.02205,11 -10.94098,11 -8.63247,0 -14.69176,-0.40576 -15.06445,-1.00878 z m -40.99457,-3.94236 -12,-0.54886 0.068,-10 c 0.0702,-10.31969 1.73474,-19.72498 3.76985,-21.30082 1.3061,-1.01136 41.08035,0.87263 42.19847,1.99882 0.62002,0.62449 -12.30242,26.46478 -14.77862,29.552 -0.55143,0.6875 -2.41,1.15949 -4.13016,1.04886 -1.72015,-0.11062 -8.52755,-0.44812 -15.12755,-0.75 z m 162.04307,-23.97917 c -1.12885,-1.82651 -9.61119,-37.44978 -9.18298,-38.5657 0.6501,-1.69413 46.3835,-28.78049 47.46514,-28.11201 0.92664,0.5727 0.59255,36.76706 -0.39938,43.26615 -0.44358,2.90633 -1.89499,3.97564 -18.20393,13.41153 -9.74706,5.63937 -18.02833,10.41305 -18.40282,10.60818 -0.3745,0.19513 -0.94871,-0.0785 -1.27603,-0.60815 z m 141.8302,-18.78834 c -7.11083,-15.32073 -8.09331,-13.07986 11.2177,-25.58565 9.176,-5.94237 17.28561,-10.5733 18.02136,-10.29097 4.5241,1.73606 21.92116,31.85608 21.21594,36.73177 -0.31152,2.15382 -1.39958,2.43604 -21.32827,5.53222 -11.55,1.79445 -21.8136,3.27808 -22.808,3.29695 -1.32249,0.0251 -3.01926,-2.57542 -6.31873,-9.68432 z m -77.37327,5.7729 -10.5,-0.55425 -0.83735,-11.387 c -0.67044,-9.11717 -0.57077,-11.55597 0.5,-12.23468 0.73554,-0.46623 6.30576,-0.85459 12.37827,-0.86301 l 11.04091,-0.0153 7.95829,-5.02533 c 4.37705,-2.76394 8.46628,-4.90143 9.08717,-4.75 2.08888,0.50947 34.42056,30.13171 34.06392,31.20931 -0.2082,0.62909 -8.51714,1.75262 -20.27201,2.74119 -20.5241,1.72603 -25.47525,1.82628 -43.4192,0.87908 z m -120.89971,-7.11951 c -13.96984,-1.59546 -25.64358,-3.1447 -25.94164,-3.44276 -0.89857,-0.89856 -3.96698,-26.93576 -3.26596,-27.7135 0.35769,-0.39683 13.69066,2.75317 29.62882,7 l 28.97849,7.72152 0,9.5 c 0,8.77741 -0.15212,9.51276 -2,9.66778 -1.1,0.0923 -13.42987,-1.13759 -27.39971,-2.73304 z m -72.26794,-3.31436 c -16.31721,-1.16621 -30.02731,-2.48048 -30.46689,-2.9206 -3.18843,-3.19237 19.47364,-45.60282 26.72959,-50.0225 1.22537,-0.74639 5.16537,1.22851 17,8.52117 l 15.40495,9.49273 4.64487,18.09287 c 2.55468,9.95108 4.39218,18.34557 4.08333,18.65441 -0.75057,0.75058 -2.95684,0.64331 -37.39585,-1.81808 z m 247.41765,-25.16276 c -6.1875,-4.67559 -11.25,-8.76249 -11.25,-9.082 0,-0.3195 1.8,-4.42202 4,-9.11669 2.2,-4.69468 4,-9.32291 4,-10.28495 0,-1.25107 -2.27814,-2.66749 -8,-4.97398 -4.4,-1.77364 -8,-3.62945 -8,-4.12402 0,-1.55972 6.45104,-10.83921 7.54842,-10.85801 1.38596,-0.0238 29.51232,15.63776 38.71474,21.55741 9.19002,5.91167 15.74137,11.22143 15.72096,12.74157 -0.0127,0.94771 -29.96912,22.73722 -31.15646,22.6624 -0.18021,-0.0113 -5.39016,-3.84613 -11.57766,-8.52173 z m -69.83214,-12.20762 c 0.88495,-16.38302 0.8399,-16.25 5.50396,-16.25 6.26983,0 50.37138,3.95987 50.98989,4.57837 0.31592,0.31593 -4.82247,5.65656 -11.41865,11.86808 l -11.99306,11.29367 -8,0.62395 c -4.4,0.34317 -11.99844,0.62664 -16.88543,0.62994 l -8.88542,0.006 0.68871,-12.75 z m -107.39196,2.80681 c -5.21075,-4.34576 -9.62242,-8.34637 -9.80371,-8.89024 -0.41915,-1.25746 9.1486,-20.39971 10.93813,-21.88398 0.99709,-0.827 5.52531,-0.37844 17.7073,1.75408 9.00219,1.57588 16.62191,3.11952 16.93271,3.43032 0.69023,0.69023 -2.36326,31.0168 -3.27085,32.4853 -0.39023,0.63142 -5.09409,1.03941 -11.8385,1.02681 l -11.19098,-0.0209 -9.4741,-7.90139 z m 48.44579,5.89739 c -0.35548,-0.57519 -0.89776,-8.82683 -1.20505,-18.33697 -0.47454,-14.68588 -0.33612,-17.37659 0.9187,-17.85811 2.69411,-1.03383 48.80558,-5.10154 49.5372,-4.36991 1.27929,1.27929 1.54478,14.24277 0.33789,16.49788 -0.73275,1.36915 -9.48166,6.31824 -24.0971,13.63126 -12.62067,6.31491 -23.37386,11.48165 -23.89598,11.48165 -0.52212,0 -1.24017,-0.47061 -1.59566,-1.0458 z m -92.40404,-24.06862 -16.43236,-7.91408 3.43236,-3.57469 c 7.90753,-8.23546 37.05184,-24.67706 40.24465,-22.7038 1.31999,0.8158 7.6877,15.07318 7.6877,17.21287 0,1.54178 -15.76298,23.22004 -17.78169,24.45451 -0.39507,0.2416 -8.11287,-3.12207 -17.15066,-7.47481 z m 172.93235,-7.5061 -11.5,-1.40513 -7.60591,-8.04415 c -4.9377,-5.2222 -9.38405,-11.26913 -12.67462,-17.23717 -6.65767,-12.07487 -6.68589,-12.26976 -1.71947,-11.87544 10.98883,0.87248 43.38536,9.96905 52.74957,14.81147 l 2.90859,1.50409 -0.69718,7.68342 c -0.38345,4.22589 -0.99171,9.48343 -1.35169,11.68343 -0.63062,3.85399 -0.7997,4.0052 -4.6319,4.14231 -2.18757,0.0783 -9.15239,-0.49 -15.47739,-1.26283 z m -125.83369,-12.7024 c -1.61396,-1.98398 -5.09715,-21.05548 -4.0713,-22.29156 2.39145,-2.88153 35.53787,-6.98929 47.89065,-5.93498 15.27918,1.30407 17.63914,2.15523 29.74627,10.72846 11.94668,8.45962 13.15415,9.57948 11.08145,10.27732 -0.72236,0.2432 -18.41338,2.03624 -39.31338,3.98452 -20.9,1.94828 -39.43463,3.7383 -41.18807,3.97782 -1.75962,0.24037 -3.61712,-0.0919 -4.14562,-0.74158 z"
         id="path3064"
         inkscape:connector-curvature="0" />
      <path
         style="fill:#aec16b"
         d="m 403.50002,666.87992 c 0,-2.40106 1.09174,-11.051 2.55798,-20.26706 0.48828,-3.06903 0.88999,-3.30535 11.72381,-6.89696 6.17002,-2.04548 11.71355,-3.90029 12.31897,-4.12181 0.60542,-0.22152 4.23432,3.78211 8.06423,8.89696 11.43497,15.27144 13.24178,19.07961 9.58501,20.20216 -2.89683,0.88927 -24.14231,3.47933 -34.52844,4.2094 l -9.72156,0.68336 0,-2.70605 z m -51.5,-0.01 c -3.3,-0.76635 -7.35,-1.9085 -9,-2.53812 -4.5198,-1.7247 -13.36643,-7.25093 -13.92096,-8.69602 -0.29239,-0.76195 5.37109,-5.70686 14.10773,-12.31779 l 14.59623,-11.0448 3.1085,2.07935 c 1.70967,1.14365 6.4437,3.70701 10.52005,5.69636 6.26605,3.05797 8.71285,3.6853 15.83114,4.05892 4.94186,0.25938 8.57956,0.90467 8.80688,1.56225 0.21301,0.61619 -0.61511,5.36406 -1.84028,10.55084 -2.09014,8.84865 -2.41212,9.48539 -5.21844,10.32019 -5.46388,1.62535 -30.45134,1.84746 -36.99085,0.32882 z m 105.93034,-16.1532 c -6.56169,-4.1767 -12.47448,-8.11876 -13.13953,-8.76015 -1.13495,-1.0942 -4.29081,-27.3157 -4.29081,-35.65123 l 0,-3.70523 9.12518,-2.73857 c 5.01885,-1.50621 9.85635,-2.54577 10.75,-2.31013 1.64552,0.43389 47.48933,36.90209 48.55322,38.62351 1.32077,2.13705 -13.38475,11.67896 -26.94409,17.4831 -12.38958,5.30341 -10.79576,5.49828 -24.05397,-2.94094 z m -158.93034,-7.37487 c -11.66104,-4.07896 -18.51387,-7.31626 -26.70748,-12.61668 -8.12077,-5.2533 -18.79252,-15.71815 -18.79252,-18.42818 0,-1.22294 13.86254,-10.89361 45.07951,-31.44801 24.79373,-16.3251 45.71494,-29.92584 46.49157,-30.22386 0.77663,-0.29802 1.61689,0.0673 1.86724,0.8119 0.25035,0.74456 1.21079,15.2399 2.1343,32.21187 l 1.67913,30.85812 -11.37587,11.511 c -10.15955,10.28022 -12.35055,11.97941 -20.49158,15.89188 -5.01364,2.40948 -9.73864,4.347 -10.5,4.3056 -0.76137,-0.0414 -4.9843,-1.33454 -9.3843,-2.87364 z m 78.01005,-13.03482 c -0.88421,-1.43068 -5.51005,-15.15575 -5.51005,-16.34855 0,-0.9436 52.87344,-0.12761 53.83183,0.83079 0.22874,0.22873 0.0226,3.92265 -0.45797,8.20869 l -0.87386,7.79281 -23.1797,0.26826 c -14.97056,0.17325 -23.40301,-0.0931 -23.81025,-0.752 z m 135.89402,-7.98046 c -8.41331,-3.7444 -40.43019,-25.07091 -44.58708,-29.69954 -1.54,-1.71477 -1.39127,-2.98185 2.24801,-19.15111 2.14342,-9.52317 4.15245,-17.72797 4.4645,-18.23289 1.0883,-1.76089 26.76131,12.23302 50.77701,27.67768 13.30642,8.55744 25.02042,16.35591 26.03112,17.32993 1.7723,1.70799 1.48789,2.04788 -8,9.56053 -18.93052,14.98945 -22.30603,16.35515 -30.93356,12.5154 z m -121.40407,-20.40149 -21.5,-3.13431 -0.28281,-11.25649 c -0.27364,-10.89142 -0.20878,-11.2888 2,-12.25292 1.25554,-0.54804 13.03502,-4.40447 26.17661,-8.56986 18.86155,-5.97839 24.06797,-7.29408 24.72082,-6.24708 1.87544,3.00777 2.02071,10.68623 0.49664,26.25078 -0.88619,9.05021 -1.61126,16.93207 -1.61126,17.51525 0,1.62127 -6.48159,1.12319 -30,-2.30537 z M 232.74556,588.43319 c -3.7432,-3.22168 -8.54562,-8.38371 -10.67204,-11.47118 -4.74951,-6.89607 -4.61771,-7.12228 7.7769,-13.34722 l 8.95905,-4.49951 6.09527,4.28451 c 15.62251,10.98143 17.54377,12.46678 17.56868,13.58264 0.0315,1.41301 -19.87891,17.30834 -21.68038,17.30834 -0.68292,0 -4.30428,-2.63591 -8.04748,-5.85758 z m 210.049,-0.39242 c -1.09483,-1.44005 -5.58679,-39.79108 -4.75773,-40.62015 0.70969,-0.70968 25.27296,2.34659 26.18435,3.25798 0.99914,0.99913 -5.73654,36.97292 -7.08639,37.84686 -1.94305,1.25799 -13.30733,0.87389 -14.34023,-0.48469 z m 82.20546,-21.28799 c -14.3,-9.09172 -26.15256,-16.97269 -26.33902,-17.51327 -0.42332,-1.22725 26.2224,-13.95374 29.17611,-13.93505 2.77207,0.0175 47.84987,17.67078 48.72073,19.07987 1.94907,3.15365 -3.32336,17.50819 -8.33177,22.68384 -3.04898,3.1508 -10.54746,6.22726 -15.15755,6.21881 -1.13768,-0.002 -13.7685,-7.44247 -28.0685,-16.5342 z m -261.99537,-4.2105 c -8.7129,-5.3694 -15.99882,-10.23409 -16.19094,-10.81044 -0.19212,-0.57635 7.16151,-5.03962 16.34139,-9.91839 l 16.69069,-8.87049 7.07712,1.20744 c 18.2799,3.11874 34.60678,6.54152 34.35508,7.20221 -0.21272,0.55838 -28.71159,21.38808 -40.62847,29.69518 -1.56639,1.09191 -3.88398,-0.0253 -17.64487,-8.50551 z m 105.82881,-2.50151 c 0.30581,-1.7875 1.11453,-10.83372 1.79715,-20.1027 0.88041,-11.95478 1.61825,-16.99743 2.53874,-17.35065 0.7137,-0.27387 5.50408,0.21906 10.64528,1.09542 9.15059,1.55977 9.65162,1.54047 23.76652,-0.91567 7.93038,-1.37997 15.44315,-2.73822 16.69505,-3.01834 l 2.27619,-0.50931 -0.27619,15.27563 -0.27618,15.27562 -27,6.70624 c -14.85,3.68843 -27.83758,6.72593 -28.86129,6.75 -1.55255,0.0365 -1.76906,-0.49534 -1.30527,-3.20624 z m -157.31076,-10 c -2.71019,-6.17652 -4.75335,-17.38333 -5.96164,-32.69989 -1.4219,-18.02421 -1.36378,-26.56876 0.18896,-27.78153 2.18006,-1.70274 38.70897,-9.71178 39.68988,-8.70209 1.08867,1.12059 8.95924,45.44526 8.35726,47.06554 -0.50419,1.35708 -37.82806,26.36797 -39.34905,26.36797 -0.5833,0 -1.89974,-1.9125 -2.92541,-4.25 z m 243.03032,-10.89121 c -9.04584,-2.1557 -16.66524,-4.1377 -16.93199,-4.40445 -0.46053,-0.46053 0.52554,-10.138 3.03866,-29.82202 l 1.13217,-8.86769 25.10408,0.56421 c 13.80724,0.31031 26.90408,0.92577 29.10408,1.36768 3.7926,0.76182 4.51446,1.56799 13.92207,15.54808 5.45714,8.10952 9.66702,14.99964 9.3553,15.31136 -0.69851,0.69852 -46.37722,14.48725 -47.48224,14.33316 -0.43732,-0.061 -8.19628,-1.87463 -17.24213,-4.03033 z m 100.82009,-7.1862 c -15.19481,-4.49493 -28.3018,-8.74413 -29.12666,-9.44267 -0.82486,-0.69854 -4.77808,-6.22821 -8.78493,-12.28815 -5.26823,-7.96763 -6.98271,-11.32056 -6.19264,-12.11063 1.37502,-1.37502 53.46615,-0.4837 63.73114,1.09049 9.01187,1.38202 15.24325,3.73011 16.59326,6.25263 1.3723,2.56417 0.4742,9.65693 -2.76364,21.82574 -2.61815,9.83982 -3.89079,13.05515 -5.1148,12.92259 -0.39315,-0.0426 -13.14693,-3.75508 -28.34173,-8.25 z m -292.56545,-5.4613 c -1.14609,-0.72866 -6.30764,-28.22138 -6.30764,-33.59732 0,-1.43768 0.5625,-2.62292 1.25,-2.63385 0.6875,-0.0109 7.325,-0.67699 14.75,-1.48012 19.45932,-2.10484 19.00196,-2.14699 18.99013,1.75 -0.0235,7.73543 -4.00026,35.13937 -5.21079,35.90754 -1.61676,1.02595 -21.86961,1.07233 -23.4717,0.0537 z m 32.70009,-1.46129 c 0.01,-1.56225 5.8208,-31.61699 6.57395,-34 0.508,-1.60732 2.66254,-1.75 26.42669,-1.75 14.23048,0 26.06872,0.3375 26.3072,0.75 0.39852,0.68932 -2.47109,25.45626 -3.82353,33 l -0.58267,3.25 -27.45468,0 c -21.30121,0 -27.45296,-0.28017 -27.44696,-1.25 z m 273.39217,-38.72738 c -11.60506,-0.94562 -21.61756,-2.03911 -22.25,-2.42998 -0.79731,-0.49276 -1.1499,-6.20484 -1.1499,-18.6286 0,-20.70612 -0.75432,-19.18863 11.37438,-22.88229 9.30815,-2.83469 16.26546,-3.52785 21.43166,-2.13523 7.97243,2.14907 12.01077,11.99342 14.14049,34.47059 0.74927,7.90784 0.72752,11.27071 -0.0792,12.24274 -0.61172,0.73708 -1.39462,1.28208 -1.73977,1.21111 -0.34516,-0.071 -10.12261,-0.90272 -21.72766,-1.84834 z m -41.58345,-3.39845 c -4.22595,-0.61829 -7.96741,-1.41563 -8.31436,-1.77187 -1.09465,-1.12394 9.42564,-32.61059 11.11204,-33.25772 2.71187,-1.04064 6.15395,-0.64134 6.69823,0.77704 0.84181,2.19373 1.11582,33.12655 0.30506,34.43839 -0.4045,0.6545 -1.0464,1.13337 -1.42644,1.06416 -0.38004,-0.0692 -4.14858,-0.63171 -8.37453,-1.25 z m -43.76351,-2.87417 c 0.0291,-0.6875 1.76578,-8.45 3.85924,-17.25 l 3.80631,-16 15.25798,-0.27668 c 12.04595,-0.21843 15.15817,-0.008 14.78385,1 -0.26077,0.70218 -2.39739,7.80168 -4.74804,15.77668 -2.35065,7.975 -4.68087,15.2875 -5.17828,16.25 -0.79339,1.53524 -2.55674,1.75 -14.36918,1.75 -10.13342,0 -13.45172,-0.30927 -13.41188,-1.25 z M 351.508,475.58939 c -7.42062,-0.79713 -13.6934,-1.6507 -13.93952,-1.89682 -0.40788,-0.40789 1.54678,-11.72193 4.08618,-23.6518 l 1.01109,-4.75 17.33951,0 17.33951,0 3.58062,9.25 c 1.96935,5.0875 3.57928,9.97001 3.57763,10.85003 -0.002,0.88002 -2.66747,3.91752 -5.92404,6.75 -6.79167,5.90722 -5.5984,5.7552 -27.07098,3.44859 z m 38.19202,0.50138 c -1.69683,-1.69683 -1.65307,-23.19223 0.05,-24.5563 0.6875,-0.55065 9.23271,-4.48982 18.98936,-8.75371 13.139,-5.74206 18.07308,-7.47558 19.02619,-6.68457 0.70775,0.58738 2.82009,4.23741 4.6941,8.11118 l 3.40729,7.04321 -2.77064,11.77009 c -1.52385,6.47356 -3.23651,12.3326 -3.80591,13.0201 -1.44162,1.74062 -37.85379,1.7866 -39.59039,0.05 z m -123.46405,-3.39739 c -1.07168,-1.07168 0.442,-29.83782 1.63455,-31.06322 0.62123,-0.63834 4.7295,-1.31334 9.1295,-1.5 l 8,-0.33939 0.55612,8.5 c 0.47101,7.19924 1.12139,9.60565 4.25,15.72504 2.03163,3.97377 3.69388,7.68627 3.69388,8.25 0,1.09637 -26.18461,1.50702 -27.26405,0.42757 z m -42.23595,-3.35375 -12,-0.54886 0.068,-10 c 0.0702,-10.31969 1.73474,-19.72498 3.76985,-21.30082 1.3061,-1.01136 41.08035,0.87263 42.19847,1.99882 0.62002,0.62449 -12.30242,26.46478 -14.77862,29.552 -0.55143,0.6875 -2.41,1.15949 -4.13016,1.04886 -1.72015,-0.11062 -8.52755,-0.44812 -15.12755,-0.75 z m 303.87327,-42.76751 c -7.11083,-15.32073 -8.09331,-13.07986 11.2177,-25.58565 9.176,-5.94237 17.28561,-10.5733 18.02136,-10.29097 4.5241,1.73606 21.92116,31.85608 21.21594,36.73177 -0.31152,2.15382 -1.39958,2.43604 -21.32827,5.53222 -11.55,1.79445 -21.8136,3.27808 -22.808,3.29695 -1.32249,0.0251 -3.01926,-2.57542 -6.31873,-9.68432 z m -77.37327,5.7729 -10.5,-0.55425 -0.83735,-11.387 c -0.67044,-9.11717 -0.57077,-11.55597 0.5,-12.23468 0.73554,-0.46623 6.30576,-0.85459 12.37827,-0.86301 l 11.04091,-0.0153 7.95829,-5.02533 c 4.37705,-2.76394 8.46628,-4.90143 9.08717,-4.75 2.08888,0.50947 34.42056,30.13171 34.06392,31.20931 -0.2082,0.62909 -8.51714,1.75262 -20.27201,2.74119 -20.5241,1.72603 -25.47525,1.82628 -43.4192,0.87908 z m -120.89971,-7.11951 c -13.96984,-1.59546 -25.64358,-3.1447 -25.94164,-3.44276 -0.89857,-0.89856 -3.96698,-26.93576 -3.26596,-27.7135 0.35769,-0.39683 13.69066,2.75317 29.62882,7 l 28.97849,7.72152 0,9.5 c 0,8.77741 -0.15212,9.51276 -2,9.66778 -1.1,0.0923 -13.42987,-1.13759 -27.39971,-2.73304 z m -72.26794,-3.31436 c -16.31721,-1.16621 -30.02731,-2.48048 -30.46689,-2.9206 -3.18843,-3.19237 19.47364,-45.60282 26.72959,-50.0225 1.22537,-0.74639 5.16537,1.22851 17,8.52117 l 15.40495,9.49273 4.64487,18.09287 c 2.55468,9.95108 4.39218,18.34557 4.08333,18.65441 -0.75057,0.75058 -2.95684,0.64331 -37.39585,-1.81808 z m 247.41765,-25.16276 c -6.1875,-4.67559 -11.25,-8.76249 -11.25,-9.082 0,-0.3195 1.8,-4.42202 4,-9.11669 2.2,-4.69468 4,-9.32291 4,-10.28495 0,-1.25107 -2.27814,-2.66749 -8,-4.97398 -4.4,-1.77364 -8,-3.62945 -8,-4.12402 0,-1.55972 6.45104,-10.83921 7.54842,-10.85801 1.38596,-0.0238 29.51232,15.63776 38.71474,21.55741 9.19002,5.91167 15.74137,11.22143 15.72096,12.74157 -0.0127,0.94771 -29.96912,22.73722 -31.15646,22.6624 -0.18021,-0.0113 -5.39016,-3.84613 -11.57766,-8.52173 z m -69.83214,-12.20762 c 0.88495,-16.38302 0.8399,-16.25 5.50396,-16.25 6.26983,0 50.37138,3.95987 50.98989,4.57837 0.31592,0.31593 -4.82247,5.65656 -11.41865,11.86808 l -11.99306,11.29367 -8,0.62395 c -4.4,0.34317 -11.99844,0.62664 -16.88543,0.62994 l -8.88542,0.006 0.68871,-12.75 z m -107.39196,2.80681 c -5.21075,-4.34576 -9.62242,-8.34637 -9.80371,-8.89024 -0.41915,-1.25746 9.1486,-20.39971 10.93813,-21.88398 0.99709,-0.827 5.52531,-0.37844 17.7073,1.75408 9.00219,1.57588 16.62191,3.11952 16.93271,3.43032 0.69023,0.69023 -2.36326,31.0168 -3.27085,32.4853 -0.39023,0.63142 -5.09409,1.03941 -11.8385,1.02681 l -11.19098,-0.0209 -9.4741,-7.90139 z m 49.61705,4.17448 c -0.70218,-1.13614 -1.10811,-32.09946 -0.42972,-32.77785 0.73132,-0.73133 46.02048,-5.30004 47.03677,-4.74501 0.4125,0.22528 0.75,3.75617 0.75,7.84642 l 0,7.43681 -22.99167,11.50417 c -12.64542,6.32729 -23.19386,11.50417 -23.44098,11.50417 -0.24712,0 -0.66311,-0.34592 -0.9244,-0.76871 z m -93.5753,-22.34571 -16.43236,-7.91408 3.43236,-3.57469 c 7.90753,-8.23546 37.05184,-24.67706 40.24465,-22.7038 1.31999,0.8158 7.6877,15.07318 7.6877,17.21287 0,1.54178 -15.76298,23.22004 -17.78169,24.45451 -0.39507,0.2416 -8.11287,-3.12207 -17.15066,-7.47481 z m 172.93235,-7.5061 -11.5,-1.40513 -7.60591,-8.04415 c -4.9377,-5.2222 -9.38405,-11.26913 -12.67462,-17.23717 -6.65767,-12.07487 -6.68589,-12.26976 -1.71947,-11.87544 10.98883,0.87248 43.38536,9.96905 52.74957,14.81147 l 2.90859,1.50409 -0.69718,7.68342 c -0.38345,4.22589 -0.99171,9.48343 -1.35169,11.68343 -0.63062,3.85399 -0.7997,4.0052 -4.6319,4.14231 -2.18757,0.0783 -9.15239,-0.49 -15.47739,-1.26283 z m -125.83369,-12.7024 c -1.61396,-1.98398 -5.09715,-21.05548 -4.0713,-22.29156 2.39145,-2.88153 35.53787,-6.98929 47.89065,-5.93498 15.27918,1.30407 17.63914,2.15523 29.74627,10.72846 11.94668,8.45962 13.15415,9.57948 11.08145,10.27732 -0.72236,0.2432 -18.41338,2.03624 -39.31338,3.98452 -20.9,1.94828 -39.43463,3.7383 -41.18807,3.97782 -1.75962,0.24037 -3.61712,-0.0919 -4.14562,-0.74158 z"
         id="path3062"
         inkscape:connector-curvature="0" />
      <path
         style="fill:#d9702d"
         d="m 357.6563,667.26879 c -3.48904,-0.48253 -9.16289,-1.8155 -12.60856,-2.96214 -6.63073,-2.20657 -15.54772,-7.32503 -15.54772,-8.92459 0,-0.84131 21.63844,-17.97501 26.66697,-21.11538 1.64619,-1.02807 2.78975,-0.65891 7.71117,2.48929 7.61881,4.87369 15.48864,7.53603 24.37186,8.24492 5.7704,0.46048 7.24303,0.90625 7.21585,2.18422 -0.0493,2.31959 -3.62729,17.10044 -4.30302,17.77617 -2.0297,2.02969 -24.3839,3.56917 -33.50655,2.30751 z m 98.84372,-18.23105 -12.5,-8.24697 -1.7227,-18.4773 c -0.94749,-10.16251 -1.39749,-18.78135 -1,-19.15296 0.39748,-0.37162 4.30125,-1.6684 8.67502,-2.88173 4.37378,-1.21333 8.47085,-2.40503 9.1046,-2.64823 1.2969,-0.49766 48.78377,37.183 49.22882,39.0629 0.31689,1.33856 -5.38213,5.62005 -13.78969,10.35974 -6.99198,3.94168 -21.65635,10.23852 -23.83466,10.23455 -0.91377,-0.002 -7.28639,-3.71417 -14.16139,-8.25 z m -157.22853,-6.74417 c -10.14388,-3.43536 -20.9692,-8.70845 -28.77147,-14.0148 -6.5729,-4.47026 -16.31729,-14.53148 -15.74687,-16.25889 0.55636,-1.68484 90.09047,-60.67278 90.87439,-59.87096 0.34514,0.35302 1.13782,10.31685 1.76151,22.14185 0.62369,11.825 1.41578,25.66686 1.7602,30.75969 l 0.62621,9.25968 -10.88772,11.12106 c -9.89674,10.10885 -11.73606,11.51875 -20.20829,15.49032 -5.12631,2.40309 -9.62631,4.35999 -10,4.34866 -0.37369,-0.0113 -4.60727,-1.35079 -9.40796,-2.97661 z m 77.73858,-11.98654 c -0.88421,-1.43068 -5.51005,-15.15575 -5.51005,-16.34855 0,-0.9436 52.87344,-0.12761 53.83183,0.83079 0.22874,0.22873 0.0226,3.92265 -0.45797,8.20869 l -0.87386,7.79281 -23.1797,0.26826 c -14.97056,0.17325 -23.40301,-0.0931 -23.81025,-0.752 z m 134.70554,-9.99086 c -7.53041,-3.56248 -16.81556,-9.45426 -31.96559,-20.28338 -8.73715,-6.24525 -11.25,-8.55474 -11.25,-10.33958 0,-2.72369 6.73695,-32.47273 7.53433,-33.27011 2.03741,-2.0374 76.00789,42.62808 75.13336,45.36767 -1.09521,3.43091 -26.73903,21.50033 -30.51132,21.49921 -1.461,-4.3e-4 -5.48435,-1.33865 -8.94078,-2.97381 z m -120.21559,-18.39109 -21.5,-3.13431 -0.28281,-11.25649 c -0.27364,-10.89142 -0.20878,-11.2888 2,-12.25292 1.25554,-0.54804 13.03502,-4.40447 26.17661,-8.56986 18.86155,-5.97839 24.06797,-7.29408 24.72082,-6.24708 1.87544,3.00777 2.02071,10.68623 0.49664,26.25078 -0.88619,9.05021 -1.61126,16.93207 -1.61126,17.51525 0,1.62127 -6.48159,1.12319 -30,-2.30537 z M 237.32675,591.61346 c -9.45389,-7.60838 -17.82673,-17.30802 -17.82673,-20.65163 0,-1.41415 16.49969,-10.67106 19.0203,-10.67106 2.07138,0 24.02621,16.11573 23.37977,17.16169 -0.6428,1.04008 -20.22814,16.83831 -20.87474,16.83831 -0.20453,0 -1.86891,-1.20479 -3.6986,-2.67731 z m 204.86039,-7.07269 c -1.47111,-9.70397 -4.0506,-36.21985 -3.57024,-36.70022 0.71398,-0.71397 24.17064,2.36549 25.1184,3.29763 0.59004,0.58031 -3.46732,25.23616 -5.74356,34.90259 -0.4901,2.0813 -1.08114,2.25 -7.88296,2.25 l -7.35314,0 -0.5685,-3.75 z m 82.81288,-18.16245 c -13.75,-8.79524 -25,-16.54044 -25,-17.21155 0,-0.67111 6.1936,-4.14203 13.76356,-7.71316 l 13.76356,-6.49297 20.23644,7.8206 c 11.13004,4.30133 22.1992,8.65616 24.59813,9.67741 l 4.3617,1.8568 -0.67578,4.73766 c -0.37167,2.60571 -1.95836,7.51825 -3.52596,10.91674 -3.6805,7.97913 -8.67854,11.55176 -16.86208,12.0531 l -5.65957,0.34673 -25,-15.99136 z m -156.16656,-6.33755 c 0.30581,-1.7875 1.11453,-10.83372 1.79715,-20.1027 0.88041,-11.95478 1.61825,-16.99743 2.53874,-17.35065 0.7137,-0.27387 5.50408,0.21906 10.64528,1.09542 9.15059,1.55977 9.65162,1.54047 23.76652,-0.91567 7.93038,-1.37997 15.44315,-2.73822 16.69505,-3.01834 l 2.27619,-0.50931 -0.27619,15.27563 -0.27618,15.27562 -27,6.70624 c -14.85,3.68843 -27.83758,6.72593 -28.86129,6.75 -1.55255,0.0365 -1.76906,-0.49534 -1.30527,-3.20624 z m -156.64302,-9.40318 c -1.9324,-3.76514 -4.45744,-15.69095 -5.68427,-26.84682 -1.02245,-9.29748 -1.3914,-34.5 -0.50506,-34.5 0.27561,0 9.12059,-2.03002 19.65553,-4.51115 10.53493,-2.48113 19.36113,-4.30443 19.61377,-4.05179 0.52467,0.52466 8.1582,43.15343 8.20131,45.79949 0.0188,1.15336 -6.0829,5.81981 -18.16884,13.89517 -10.00843,6.68724 -18.97434,12.36187 -19.92425,12.61028 -1.15003,0.30073 -2.21531,-0.49957 -3.18819,-2.39518 z m 347.80958,-18.43157 c -11,-3.24606 -22.96127,-6.79472 -26.58059,-7.88591 l -6.58059,-1.98399 -7.60734,-11.42228 c -7.14226,-10.72396 -7.47357,-11.45814 -5.41941,-12.00902 3.5408,-0.94955 34.06554,-0.69376 48.68793,0.40799 13.77008,1.03753 24.20569,3.07385 26.80411,5.23035 2.17814,1.80769 0.97741,15.40441 -2.2517,25.49761 -2.27862,7.12224 -2.94105,8.2375 -4.84592,8.15859 -1.21357,-0.0503 -11.20649,-2.74728 -22.20649,-5.99334 z m -263.65385,-6.40244 c -0.45449,-0.45448 1.90095,-14.11716 5.21729,-30.26281 l 1.07836,-5.25 26.02728,0 26.02729,0 -0.67266,5.79569 c -0.36996,3.18763 -1.42665,11.17513 -2.34818,17.75 l -1.67553,11.95431 -26.56734,0.26599 c -14.61204,0.14629 -26.80097,0.0324 -27.08651,-0.25318 z m -34.71183,-6.76281 c -3.19442,-18.64179 -4.39912,-26.81853 -4.00878,-27.20888 0.7427,-0.74269 32.00189,-3.74703 32.61433,-3.13458 0.50797,0.50797 -1.96198,24.57998 -3.42127,33.34346 l -0.54118,3.25 -11.78606,0 -11.78605,0 -1.07099,-6.25 z m 301.99917,-34.29773 c -8.45158,-0.70691 -15.77504,-1.69382 -16.27437,-2.19315 -0.49932,-0.49932 -0.78439,-8.73739 -0.63349,-18.30682 l 0.27437,-17.39897 7.94267,-2.7177 c 17.7587,-6.07642 25.88889,-4.71241 30.78226,5.16437 3.12886,6.31527 5.77507,20.12169 5.77507,30.13099 l 0,6.86901 -6.25,-0.13122 c -3.4375,-0.0722 -13.16493,-0.70961 -21.61651,-1.41651 z m -36.31704,-1.8281 c -4.22595,-0.61829 -7.96741,-1.41563 -8.31436,-1.77187 -1.09465,-1.12394 9.42564,-32.61059 11.11204,-33.25772 2.71187,-1.04064 6.15395,-0.64134 6.69823,0.77704 0.84181,2.19373 1.11582,33.12655 0.30506,34.43839 -0.4045,0.6545 -1.0464,1.13337 -1.42644,1.06416 -0.38004,-0.0692 -4.14858,-0.63171 -8.37453,-1.25 z m -43.76351,-2.87417 c 0.0291,-0.6875 1.76578,-8.45 3.85924,-17.25 l 3.80631,-16 15.25798,-0.27668 c 12.04595,-0.21843 15.15817,-0.008 14.78385,1 -0.26077,0.70218 -2.39739,7.80168 -4.74804,15.77668 -2.35065,7.975 -4.68087,15.2875 -5.17828,16.25 -0.79339,1.53524 -2.55674,1.75 -14.36918,1.75 -10.13342,0 -13.45172,-0.30927 -13.41188,-1.25 z M 351.508,475.58939 c -7.42062,-0.79713 -13.6934,-1.6507 -13.93952,-1.89682 -0.40788,-0.40789 1.54678,-11.72193 4.08618,-23.6518 l 1.01109,-4.75 17.33951,0 17.33951,0 3.58062,9.25 c 1.96935,5.0875 3.57928,9.97001 3.57763,10.85003 -0.002,0.88002 -2.66747,3.91752 -5.92404,6.75 -6.79167,5.90722 -5.5984,5.7552 -27.07098,3.44859 z m 38.19202,0.50138 c -1.69683,-1.69683 -1.65307,-23.19223 0.05,-24.5563 0.6875,-0.55065 9.23271,-4.48982 18.98936,-8.75371 13.139,-5.74206 18.07308,-7.47558 19.02619,-6.68457 0.70775,0.58738 2.82009,4.23741 4.6941,8.11118 l 3.40729,7.04321 -2.77064,11.77009 c -1.52385,6.47356 -3.23651,12.3326 -3.80591,13.0201 -1.44162,1.74062 -37.85379,1.7866 -39.59039,0.05 z m -123.46405,-3.39739 c -1.07168,-1.07168 0.442,-29.83782 1.63455,-31.06322 0.62123,-0.63834 4.7295,-1.31334 9.1295,-1.5 l 8,-0.33939 0.55612,8.5 c 0.47101,7.19924 1.12139,9.60565 4.25,15.72504 2.03163,3.97377 3.69388,7.68627 3.69388,8.25 0,1.09637 -26.18461,1.50702 -27.26405,0.42757 z m 265.78688,-38.77976 c -3.05478,-4.78006 -9.66016,-20.88214 -8.87154,-21.62638 2.74248,-2.58814 31.91908,-20.99221 33.24694,-20.97157 4.51943,0.0703 24.21408,34.26279 21.37209,37.10478 -0.45201,0.45201 -9.58524,2.17376 -20.29608,3.82611 -10.71083,1.65235 -20.51386,3.18104 -21.7845,3.39709 -1.55159,0.26382 -2.75577,-0.30431 -3.66691,-1.73003 z m -78.81654,-2.37 c -8.16295,-0.21946 -11.90831,-0.69201 -12.16598,-1.53496 -0.20475,-0.66984 -0.61994,-5.55844 -0.92265,-10.86356 l -0.55037,-9.64566 11.77824,-0.35434 11.77824,-0.35433 8.20663,-5.38823 c 8.16275,-5.35942 8.21843,-5.37814 10.41365,-3.5 13.0058,11.12721 30.69396,27.82881 30.0595,28.38293 -0.85192,0.74404 -41.4026,4.1839 -44.80355,3.80063 -1.1,-0.12397 -7.30717,-0.36808 -13.79371,-0.54248 z m -122.63402,-7.35048 c -13.98525,-1.57271 -25.72758,-3.34465 -26.09406,-3.93763 -0.97501,-1.57759 -3.33664,-23.93964 -2.60546,-24.67082 0.56903,-0.56904 48.63641,11.61847 54.26862,13.75983 2.34785,0.89265 2.42886,1.2359 2.14922,9.10644 -0.15982,4.49836 -0.74059,8.27397 -1.29059,8.39025 -0.55,0.11628 -12.44248,-1.07535 -26.42773,-2.64807 z m -76.53608,-3.04125 c -14.2801,-1.03881 -26.31834,-2.24327 -26.75163,-2.67657 -0.84546,-0.84545 4.51464,-14.87231 9.32338,-24.39837 6.09235,-12.06888 15.53268,-24.78618 18.39933,-24.78618 1.21882,0 27.95367,16.06094 29.78762,17.89489 0.76248,0.76248 9.68878,33.29505 9.70075,35.35511 0.007,1.11396 -11.46931,0.72002 -40.45945,-1.38888 z m 180.9729,-24.84642 c -0.70865,-1.14661 1.477,-26.33484 2.3654,-27.25977 0.83906,-0.87356 51.24524,3.20581 52.42589,4.24282 0.78153,0.68645 -17.7969,19.03617 -21.78825,21.52003 -2.33673,1.45417 -32.19254,2.80835 -33.00304,1.49692 z m -99.00909,-2.88868 c -1.65,-1.02658 -6.49564,-4.87014 -10.76808,-8.54125 l -7.76808,-6.67474 5.60363,-10.95501 c 3.68182,-7.19792 6.16516,-10.95502 7.24096,-10.95502 3.12906,0 31.69611,5.18995 32.44282,5.89408 1.00821,0.95073 -2.19766,30.26909 -3.48336,31.85592 -0.68369,0.84383 -4.14112,1.24878 -10.64033,1.24626 -7.65529,-0.003 -10.24213,-0.3861 -12.62756,-1.87024 z m 41.14295,-1.89473 c -0.70218,-1.13614 -1.10811,-32.09946 -0.42972,-32.77785 0.73132,-0.73133 46.02048,-5.30004 47.03677,-4.74501 0.4125,0.22528 0.75,3.75617 0.75,7.84642 l 0,7.43681 -22.99167,11.50417 c -12.64542,6.32729 -23.19386,11.50417 -23.44098,11.50417 -0.24712,0 -0.66311,-0.34592 -0.9244,-0.76871 z m 82.35705,-30.78148 c -5.225,-0.70326 -10.53832,-1.31717 -11.80738,-1.36423 -3.68822,-0.13679 -15.82656,-13.80393 -21.92583,-24.68735 -2.89674,-5.16888 -5.26679,-9.62302 -5.26679,-9.89809 0,-3.13533 40.91884,7.33651 53.25078,13.6278 3.84058,1.95932 3.93835,2.13778 3.39351,6.19475 -0.30855,2.29752 -0.85716,7.21481 -1.21914,10.92731 l -0.65814,6.75 -3.13351,-0.13577 c -1.72342,-0.0747 -7.4085,-0.71116 -12.6335,-1.41442 z M 329.66479,344.54077 c -2.46916,-11.7172 -3.40073,-17.34738 -2.9456,-17.8025 0.88753,-0.88753 14.0881,-3.3617 24.27411,-4.54967 12.1033,-1.41158 33.39254,-0.67348 39.19531,1.3589 3.11014,1.0893 19.30464,11.62112 25.22808,16.40665 0.22916,0.18514 0.14784,0.60545 -0.18073,0.93401 -0.50413,0.50413 -77.97679,8.34203 -82.90308,8.38729 -1.18586,0.0109 -1.95609,-1.3559 -2.66809,-4.73468 z"
         id="path3060"
         inkscape:connector-curvature="0" />
      <path
         style="fill:#2f9ea8"
         d="m 299.27149,642.29357 c -10.14388,-3.43536 -20.9692,-8.70845 -28.77147,-14.0148 -6.5729,-4.47026 -16.31729,-14.53148 -15.74687,-16.25889 0.55636,-1.68484 90.09047,-60.67278 90.87439,-59.87096 0.34514,0.35302 1.13782,10.31685 1.76151,22.14185 0.62369,11.825 1.41578,25.66686 1.7602,30.75969 l 0.62621,9.25968 -10.88772,11.12106 c -9.89674,10.10885 -11.73606,11.51875 -20.20829,15.49032 -5.12631,2.40309 -9.62631,4.35999 -10,4.34866 -0.37369,-0.0113 -4.60727,-1.35079 -9.40796,-2.97661 z m 77.73858,-11.98654 c -0.88421,-1.43068 -5.51005,-15.15575 -5.51005,-16.34855 0,-0.9436 52.87344,-0.12761 53.83183,0.83079 0.22874,0.22873 0.0226,3.92265 -0.45797,8.20869 l -0.87386,7.79281 -23.1797,0.26826 c -14.97056,0.17325 -23.40301,-0.0931 -23.81025,-0.752 z m 134.70554,-9.99086 c -7.53041,-3.56248 -16.81556,-9.45426 -31.96559,-20.28338 -8.73715,-6.24525 -11.25,-8.55474 -11.25,-10.33958 0,-2.72369 6.73695,-32.47273 7.53433,-33.27011 2.03741,-2.0374 76.00789,42.62808 75.13336,45.36767 -1.09521,3.43091 -26.73903,21.50033 -30.51132,21.49921 -1.461,-4.3e-4 -5.48435,-1.33865 -8.94078,-2.97381 z m -120.21559,-18.39109 -21.5,-3.13431 -0.28281,-11.25649 c -0.27364,-10.89142 -0.20878,-11.2888 2,-12.25292 1.25554,-0.54804 13.03502,-4.40447 26.17661,-8.56986 18.86155,-5.97839 24.06797,-7.29408 24.72082,-6.24708 1.87544,3.00777 2.02071,10.68623 0.49664,26.25078 -0.88619,9.05021 -1.61126,16.93207 -1.61126,17.51525 0,1.62127 -6.48159,1.12319 -30,-2.30537 z m -22.66656,-41.88431 c 0.30581,-1.7875 1.11453,-10.83372 1.79715,-20.1027 0.88041,-11.95478 1.61825,-16.99743 2.53874,-17.35065 0.7137,-0.27387 5.50408,0.21906 10.64528,1.09542 9.15059,1.55977 9.65162,1.54047 23.76652,-0.91567 7.93038,-1.37997 15.44315,-2.73822 16.69505,-3.01834 l 2.27619,-0.50931 -0.27619,15.27563 -0.27618,15.27562 -27,6.70624 c -14.85,3.68843 -27.83758,6.72593 -28.86129,6.75 -1.55255,0.0365 -1.76906,-0.49534 -1.30527,-3.20624 z m 191.16656,-27.83475 c -11,-3.24606 -22.96127,-6.79472 -26.58059,-7.88591 l -6.58059,-1.98399 -7.60734,-11.42228 c -7.14226,-10.72396 -7.47357,-11.45814 -5.41941,-12.00902 3.5408,-0.94955 34.06554,-0.69376 48.68793,0.40799 13.77008,1.03753 24.20569,3.07385 26.80411,5.23035 2.17814,1.80769 0.97741,15.40441 -2.2517,25.49761 -2.27862,7.12224 -2.94105,8.2375 -4.84592,8.15859 -1.21357,-0.0503 -11.20649,-2.74728 -22.20649,-5.99334 z M 261.63434,519.04077 c -3.19442,-18.64179 -4.39912,-26.81853 -4.00878,-27.20888 0.7427,-0.74269 32.00189,-3.74703 32.61433,-3.13458 0.50797,0.50797 -1.96198,24.57998 -3.42127,33.34346 l -0.54118,3.25 -11.78606,0 -11.78605,0 -1.07099,-6.25 z m 301.99917,-34.29773 c -8.45158,-0.70691 -15.77504,-1.69382 -16.27437,-2.19315 -0.49932,-0.49932 -0.78439,-8.73739 -0.63349,-18.30682 l 0.27437,-17.39897 7.94267,-2.7177 c 17.7587,-6.07642 25.88889,-4.71241 30.78226,5.16437 3.12886,6.31527 5.77507,20.12169 5.77507,30.13099 l 0,6.86901 -6.25,-0.13122 c -3.4375,-0.0722 -13.16493,-0.70961 -21.61651,-1.41651 z m -36.31704,-1.8281 c -4.22595,-0.61829 -7.96741,-1.41563 -8.31436,-1.77187 -1.09465,-1.12394 9.42564,-32.61059 11.11204,-33.25772 2.71187,-1.04064 6.15395,-0.64134 6.69823,0.77704 0.84181,2.19373 1.11582,33.12655 0.30506,34.43839 -0.4045,0.6545 -1.0464,1.13337 -1.42644,1.06416 -0.38004,-0.0692 -4.14858,-0.63171 -8.37453,-1.25 z m -43.76351,-2.87417 c 0.0291,-0.6875 1.76578,-8.45 3.85924,-17.25 l 3.80631,-16 15.25798,-0.27668 c 12.04595,-0.21843 15.15817,-0.008 14.78385,1 -0.26077,0.70218 -2.39739,7.80168 -4.74804,15.77668 -2.35065,7.975 -4.68087,15.2875 -5.17828,16.25 -0.79339,1.53524 -2.55674,1.75 -14.36918,1.75 -10.13342,0 -13.45172,-0.30927 -13.41188,-1.25 z M 351.508,475.58939 c -7.42062,-0.79713 -13.6934,-1.6507 -13.93952,-1.89682 -0.40788,-0.40789 1.54678,-11.72193 4.08618,-23.6518 l 1.01109,-4.75 17.33951,0 17.33951,0 3.58062,9.25 c 1.96935,5.0875 3.57928,9.97001 3.57763,10.85003 -0.002,0.88002 -2.66747,3.91752 -5.92404,6.75 -6.79167,5.90722 -5.5984,5.7552 -27.07098,3.44859 z m 38.19202,0.50138 c -1.69683,-1.69683 -1.65307,-23.19223 0.05,-24.5563 0.6875,-0.55065 9.23271,-4.48982 18.98936,-8.75371 13.139,-5.74206 18.07308,-7.47558 19.02619,-6.68457 0.70775,0.58738 2.82009,4.23741 4.6941,8.11118 l 3.40729,7.04321 -2.77064,11.77009 c -1.52385,6.47356 -3.23651,12.3326 -3.80591,13.0201 -1.44162,1.74062 -37.85379,1.7866 -39.59039,0.05 z m -123.46405,-3.39739 c -1.07168,-1.07168 0.442,-29.83782 1.63455,-31.06322 0.62123,-0.63834 4.7295,-1.31334 9.1295,-1.5 l 8,-0.33939 0.55612,8.5 c 0.47101,7.19924 1.12139,9.60565 4.25,15.72504 2.03163,3.97377 3.69388,7.68627 3.69388,8.25 0,1.09637 -26.18461,1.50702 -27.26405,0.42757 z m 186.97034,-41.14976 c -8.16295,-0.21946 -11.90831,-0.69201 -12.16598,-1.53496 -0.20475,-0.66984 -0.61994,-5.55844 -0.92265,-10.86356 l -0.55037,-9.64566 11.77824,-0.35434 11.77824,-0.35433 8.20663,-5.38823 c 8.16275,-5.35942 8.21843,-5.37814 10.41365,-3.5 13.0058,11.12721 30.69396,27.82881 30.0595,28.38293 -0.85192,0.74404 -41.4026,4.1839 -44.80355,3.80063 -1.1,-0.12397 -7.30717,-0.36808 -13.79371,-0.54248 z m -122.63402,-7.35048 c -13.98525,-1.57271 -25.72758,-3.34465 -26.09406,-3.93763 -0.97501,-1.57759 -3.33664,-23.93964 -2.60546,-24.67082 0.56903,-0.56904 48.63641,11.61847 54.26862,13.75983 2.34785,0.89265 2.42886,1.2359 2.14922,9.10644 -0.15982,4.49836 -0.74059,8.27397 -1.29059,8.39025 -0.55,0.11628 -12.44248,-1.07535 -26.42773,-2.64807 z m 46.57068,-32.67108 c -0.70218,-1.13614 -1.10811,-32.09946 -0.42972,-32.77785 0.73132,-0.73133 46.02048,-5.30004 47.03677,-4.74501 0.4125,0.22528 0.75,3.75617 0.75,7.84642 l 0,7.43681 -22.99167,11.50417 c -12.64542,6.32729 -23.19386,11.50417 -23.44098,11.50417 -0.24712,0 -0.66311,-0.34592 -0.9244,-0.76871 z m 82.35705,-30.78148 c -5.225,-0.70326 -10.53832,-1.31717 -11.80738,-1.36423 -3.68822,-0.13679 -15.82656,-13.80393 -21.92583,-24.68735 -2.89674,-5.16888 -5.26679,-9.62302 -5.26679,-9.89809 0,-3.13533 40.91884,7.33651 53.25078,13.6278 3.84058,1.95932 3.93835,2.13778 3.39351,6.19475 -0.30855,2.29752 -0.85716,7.21481 -1.21914,10.92731 l -0.65814,6.75 -3.13351,-0.13577 c -1.72342,-0.0747 -7.4085,-0.71116 -12.6335,-1.41442 z"
         id="path3058"
         inkscape:connector-curvature="0" />
      <path
         style="fill:#73a340"
         d="m 299.27149,642.29357 c -10.14388,-3.43536 -20.9692,-8.70845 -28.77147,-14.0148 -6.5729,-4.47026 -16.31729,-14.53148 -15.74687,-16.25889 0.55636,-1.68484 90.09047,-60.67278 90.87439,-59.87096 0.34514,0.35302 1.13782,10.31685 1.76151,22.14185 0.62369,11.825 1.41578,25.66686 1.7602,30.75969 l 0.62621,9.25968 -10.88772,11.12106 c -9.89674,10.10885 -11.73606,11.51875 -20.20829,15.49032 -5.12631,2.40309 -9.62631,4.35999 -10,4.34866 -0.37369,-0.0113 -4.60727,-1.35079 -9.40796,-2.97661 z m 212.44412,-21.9774 c -7.53041,-3.56248 -16.81556,-9.45426 -31.96559,-20.28338 -8.73715,-6.24525 -11.25,-8.55474 -11.25,-10.33958 0,-2.72369 6.73695,-32.47273 7.53433,-33.27011 2.03741,-2.0374 76.00789,42.62808 75.13336,45.36767 -1.09521,3.43091 -26.73903,21.50033 -30.51132,21.49921 -1.461,-4.3e-4 -5.48435,-1.33865 -8.94078,-2.97381 z M 393.00002,601.17338 c -11,-1.581 -20.5625,-3.08723 -21.25,-3.34719 -0.89032,-0.33665 -1.25,-3.48557 -1.25,-10.94352 l 0,-10.47087 8.25,-2.53664 c 4.5375,-1.39516 15.9,-4.97854 25.25,-7.96306 9.35,-2.98453 17.3115,-5.23478 17.69222,-5.00057 2.18824,1.3462 1.84408,16.77226 -0.86183,38.62924 -0.58347,4.713 -0.61626,4.74905 -4.20922,4.62857 -1.99164,-0.0668 -12.62117,-1.41497 -23.62117,-2.99596 z m 167,-68.96736 c -11,-3.24606 -22.96127,-6.79472 -26.58059,-7.88591 l -6.58059,-1.98399 -7.60734,-11.42228 c -7.14226,-10.72396 -7.47357,-11.45814 -5.41941,-12.00902 3.5408,-0.94955 34.06554,-0.69376 48.68793,0.40799 13.77008,1.03753 24.20569,3.07385 26.80411,5.23035 2.17814,1.80769 0.97741,15.40441 -2.2517,25.49761 -2.27862,7.12224 -2.94105,8.2375 -4.84592,8.15859 -1.21357,-0.0503 -11.20649,-2.74728 -22.20649,-5.99334 z M 261.63434,519.04077 c -3.19442,-18.64179 -4.39912,-26.81853 -4.00878,-27.20888 0.7427,-0.74269 32.00189,-3.74703 32.61433,-3.13458 0.50797,0.50797 -1.96198,24.57998 -3.42127,33.34346 l -0.54118,3.25 -11.78606,0 -11.78605,0 -1.07099,-6.25 z m 301.99917,-34.29773 c -8.45158,-0.70691 -15.77504,-1.69382 -16.27437,-2.19315 -0.49932,-0.49932 -0.78439,-8.73739 -0.63349,-18.30682 l 0.27437,-17.39897 7.94267,-2.7177 c 17.7587,-6.07642 25.88889,-4.71241 30.78226,5.16437 3.12886,6.31527 5.77507,20.12169 5.77507,30.13099 l 0,6.86901 -6.25,-0.13122 c -3.4375,-0.0722 -13.16493,-0.70961 -21.61651,-1.41651 z m -35.13349,-2.70219 c -4.125,-0.47936 -7.81939,-1.18612 -8.20975,-1.57057 -0.8238,-0.81133 8.335,-29.70476 9.91766,-31.28742 0.58378,-0.58378 2.12582,-0.91082 3.42675,-0.72675 2.35359,0.333 2.36791,0.41665 2.88243,16.83466 0.28439,9.075 0.28439,16.75237 0,17.06082 -0.2844,0.30845 -3.89209,0.16862 -8.01709,-0.31074 z m -138.55878,-7.04267 c -0.28196,-0.73477 -0.38408,-6.19549 -0.22694,-12.13494 l 0.28572,-10.79899 18,-7.88651 c 9.9,-4.33759 18.2474,-7.88662 18.54978,-7.88674 0.30237,-1.3e-4 2.27417,3.5366 4.38177,7.85938 l 3.832,7.85961 -2.88177,11.89039 -2.88178,11.89039 -19.27307,0.27167 c -15.34874,0.21636 -19.37745,-3.4e-4 -19.78571,-1.06426 z m -122.63711,-3.23664 c -0.73091,-0.7309 0.27644,-28.81935 1.06177,-29.60583 0.34877,-0.34928 4.12162,-0.84419 8.38412,-1.09981 l 7.75,-0.46476 0,7.15271 c 0,6.29958 0.4771,8.13929 4,15.42421 2.2,4.54931 4,8.46301 4,8.6971 0,0.62252 -24.5708,0.52148 -25.19589,-0.10362 z m 185.90218,-40.21792 c -8.16295,-0.21946 -11.90831,-0.69201 -12.16598,-1.53496 -0.20475,-0.66984 -0.61994,-5.55844 -0.92265,-10.86356 l -0.55037,-9.64566 11.77824,-0.35434 11.77824,-0.35433 8.20663,-5.38823 c 8.16275,-5.35942 8.21843,-5.37814 10.41365,-3.5 13.0058,11.12721 30.69396,27.82881 30.0595,28.38293 -0.85192,0.74404 -41.4026,4.1839 -44.80355,3.80063 -1.1,-0.12397 -7.30717,-0.36808 -13.79371,-0.54248 z m -122.63402,-7.35048 c -13.98525,-1.57271 -25.72758,-3.34465 -26.09406,-3.93763 -0.97501,-1.57759 -3.33664,-23.93964 -2.60546,-24.67082 0.56903,-0.56904 48.63641,11.61847 54.26862,13.75983 2.34785,0.89265 2.42886,1.2359 2.14922,9.10644 -0.15982,4.49836 -0.74059,8.27397 -1.29059,8.39025 -0.55,0.11628 -12.44248,-1.07535 -26.42773,-2.64807 z m 128.92773,-63.45256 c -5.225,-0.70326 -10.53832,-1.31717 -11.80738,-1.36423 -3.68822,-0.13679 -15.82656,-13.80393 -21.92583,-24.68735 -2.89674,-5.16888 -5.26679,-9.62302 -5.26679,-9.89809 0,-3.13533 40.91884,7.33651 53.25078,13.6278 3.84058,1.95932 3.93835,2.13778 3.39351,6.19475 -0.30855,2.29752 -0.85716,7.21481 -1.21914,10.92731 l -0.65814,6.75 -3.13351,-0.13577 c -1.72342,-0.0747 -7.4085,-0.71116 -12.6335,-1.41442 z"
         id="path3056"
         inkscape:connector-curvature="0" />
      <path
         style="fill:#0f6e71"
         d="m 393.00002,601.17338 c -11,-1.581 -20.5625,-3.08723 -21.25,-3.34719 -0.89032,-0.33665 -1.25,-3.48557 -1.25,-10.94352 l 0,-10.47087 8.25,-2.53664 c 4.5375,-1.39516 15.9,-4.97854 25.25,-7.96306 9.35,-2.98453 17.3115,-5.23478 17.69222,-5.00057 2.18824,1.3462 1.84408,16.77226 -0.86183,38.62924 -0.58347,4.713 -0.61626,4.74905 -4.20922,4.62857 -1.99164,-0.0668 -12.62117,-1.41497 -23.62117,-2.99596 z m 135.5,-119.13253 c -4.125,-0.47936 -7.81939,-1.18612 -8.20975,-1.57057 -0.8238,-0.81133 8.335,-29.70476 9.91766,-31.28742 0.58378,-0.58378 2.12582,-0.91082 3.42675,-0.72675 2.35359,0.333 2.36791,0.41665 2.88243,16.83466 0.28439,9.075 0.28439,16.75237 0,17.06082 -0.2844,0.30845 -3.89209,0.16862 -8.01709,-0.31074 z m -138.55878,-7.04267 c -0.28196,-0.73477 -0.38408,-6.19549 -0.22694,-12.13494 l 0.28572,-10.79899 18,-7.88651 c 9.9,-4.33759 18.2474,-7.88662 18.54978,-7.88674 0.30237,-1.3e-4 2.27417,3.5366 4.38177,7.85938 l 3.832,7.85961 -2.88177,11.89039 -2.88178,11.89039 -19.27307,0.27167 c -15.34874,0.21636 -19.37745,-3.4e-4 -19.78571,-1.06426 z m -122.63711,-3.23664 c -0.73091,-0.7309 0.27644,-28.81935 1.06177,-29.60583 0.34877,-0.34928 4.12162,-0.84419 8.38412,-1.09981 l 7.75,-0.46476 0,7.15271 c 0,6.29958 0.4771,8.13929 4,15.42421 2.2,4.54931 4,8.46301 4,8.6971 0,0.62252 -24.5708,0.52148 -25.19589,-0.10362 z"
         id="path3054"
         inkscape:connector-curvature="0" />
    </g>
  </g>
</svg>
